<svg width="146" height="35" viewBox="0 0 146 35" fill="none" xmlns="http://www.w3.org/2000/svg">
<path d="M47.3984 12.7677C46.5861 12.7677 46.3174 12.79 45.7982 12.8535V10.5915C46.3845 10.655 46.9465 10.6963 47.7344 10.6963H50.3912C51.1791 10.6963 51.7869 10.655 52.3518 10.5915V12.8535C51.8327 12.79 51.5181 12.7677 50.8188 12.7677H50.2782V16.6786H50.6386C51.2463 16.6786 51.5853 16.6564 52.0587 16.5738V18.8136C51.5639 18.75 51.2036 18.7278 50.6172 18.7278H50.2782V22.7435C50.886 22.5306 51.0448 22.448 51.7869 22.1716L51.8327 24.1795C50.5256 24.7927 49.13 25.3423 46.8304 26.1048C46.4029 26.2541 46.1983 26.3367 45.9509 26.4638L45.4775 24.0747C45.9509 24.0334 46.58 23.8618 47.9787 23.4837V18.7278H47.5725C46.9648 18.7278 46.5372 18.7691 46.0853 18.8326V16.5706C46.58 16.6341 46.9862 16.6754 47.5939 16.6754H47.9756V12.7646H47.3893L47.3984 12.7677ZM54.9446 18.6865C54.9232 21.5394 54.8774 22.1526 54.5628 23.6331C54.1811 25.5138 53.5276 27.0356 52.4007 28.6209C51.8388 28.03 51.341 27.671 50.3729 27.1849C51.4754 25.7267 51.9273 24.8816 52.2419 23.6108C52.5564 22.4703 52.7152 20.2273 52.7152 17.2695C52.7152 15.2617 52.6939 14.4992 52.5809 13.4222C53.4359 13.508 53.9765 13.527 55.1034 13.527H57.177V11.3286C57.177 10.5883 57.1556 10.2071 57.064 9.65747H59.6109C59.5437 10.0387 59.5193 10.2484 59.4979 10.8202H62.3808C63.5077 10.8202 64.2039 10.798 64.9247 10.7154V12.682C64.1581 12.6184 63.4374 12.5962 62.4235 12.5962H59.4949V13.527H61.8372C63.2786 13.527 63.9108 13.5048 64.3597 13.4222L65.9355 14.585C65.8011 14.8614 65.5538 15.411 65.3736 15.8526C65.0804 16.5928 64.8544 17.0154 64.4269 17.7969C63.7275 17.4157 63.187 17.206 62.3991 17.0154C62.7808 16.488 62.8724 16.38 63.3672 15.3665H58.7497V16.6341L60.5973 16.5071C61.3852 16.4435 61.657 16.4213 62.2647 16.3164L62.3105 18.1972H61.77C61.3883 18.1972 61.0951 18.1972 60.8019 18.2195L58.7528 18.3878V18.9152C58.7528 19.4426 58.9787 19.5061 60.8263 19.5061C63.2145 19.5061 63.303 19.4648 63.3275 17.9208C63.8894 18.2163 64.3627 18.4069 65.2636 18.6388C65.1293 19.8874 65.0376 20.1606 64.6559 20.5418C64.094 21.0692 63.2359 21.2185 60.579 21.2185C57.177 21.2185 56.615 20.9866 56.615 19.611V18.5531L54.9476 18.6801L54.9446 18.6865ZM58.7955 21.7936C58.7507 21.963 58.7131 22.3368 58.6825 22.9151C58.5481 24.6497 58.3008 25.5774 57.6228 26.594C57.1281 27.3978 56.5876 27.9061 55.3263 28.7067C54.4254 27.7123 54.3796 27.671 53.5703 27.1627C55.6653 26.2096 56.4776 24.8784 56.4776 22.3623C56.4776 22.1303 56.4562 22.0033 56.4318 21.7078L58.7955 21.7936ZM56.612 15.4936V15.3665H54.9446V16.9105L56.612 16.7835V15.4936ZM62.2647 21.8158C62.1975 22.2606 62.1762 22.7657 62.1762 23.2963V25.9396C62.1762 26.2986 62.3105 26.3843 62.9641 26.3843C63.6705 26.3843 64.038 25.5382 64.0665 23.8459C64.7872 24.2272 65.1476 24.3542 66.0485 24.5226C66.0027 26.3399 65.8011 27.312 65.3736 27.779C64.9674 28.2016 64.3597 28.3287 62.7167 28.3287C60.4629 28.3287 59.9926 28.0554 59.9926 26.702V23.2995C59.9926 22.7086 59.9713 22.3496 59.8796 21.819H62.2678L62.2647 21.8158Z" fill="#191919"/>
<path d="M70.3331 12.8731C69.591 12.8731 69.1176 12.8954 68.4641 12.9589V10.7604C69.0718 10.8462 69.591 10.8653 70.4674 10.8653H73.7778C74.6329 10.8653 75.1521 10.843 75.7384 10.7604V12.9589C75.6183 12.9441 75.4086 12.9229 75.1093 12.8954C74.862 12.8731 74.749 12.8731 73.9611 12.8731H73.3075V16.9333H74.0954C74.7703 16.9333 74.9963 16.9111 75.4911 16.8475V18.9602C74.9963 18.9189 74.5902 18.8967 74.0954 18.8967H73.3075V22.976C74.3001 22.5947 74.6604 22.4486 75.7415 21.9625L75.7629 24.1197C74.2298 24.8377 73.2862 25.2412 71.8447 25.7685C71.6045 25.8681 71.0568 26.0651 70.2017 26.3595C70.0429 26.423 69.7284 26.5278 69.2337 26.7185C68.9863 26.8042 68.9649 26.8042 68.7603 26.8868L68.1526 24.52C68.8519 24.3929 69.5482 24.2023 70.9896 23.7797V18.8967H70.3147C69.707 18.8967 69.2795 18.9189 68.8061 18.9825V16.8475C69.3008 16.9111 69.6856 16.9333 70.3605 16.9333H70.9896V12.8731H70.3361H70.3331ZM79.9955 12.6825C80.5361 11.6468 80.8751 10.6333 81.1224 9.36255L83.6663 9.93441C83.2174 11.2465 83.0586 11.561 82.4967 12.6825H85.4253C86.6408 12.6825 87.0469 12.6603 87.6547 12.5967C87.5875 13.2512 87.5631 13.7182 87.5631 14.6904V25.9147C87.5631 26.7598 87.6089 27.7764 87.6974 28.4722H85.1749V27.2871H78.9358V28.4722H76.4347C76.5019 27.7542 76.5477 26.7185 76.5477 25.9147V14.7317C76.5477 13.6737 76.5263 13.2925 76.4805 12.5967C77.1341 12.6603 77.6288 12.6825 78.8228 12.6825H79.9955ZM78.9389 18.7283H85.178V14.7761H78.9389V18.7283ZM78.9389 25.2189H85.178V20.7807H78.9389V25.2189Z" fill="#191919"/>
<path d="M91.1016 27.2085V11.3108H97.5666C102.386 11.3108 105.314 13.954 105.314 18.9864C105.314 24.0188 102.41 27.2116 97.5666 27.2116H91.1016V27.2085ZM94.1402 13.7412V24.8194H97.2704C100.065 24.8194 102.068 22.767 102.068 19.0468C102.068 15.3265 99.9517 13.7412 97.023 13.7412H94.1402Z" fill="#191919"/>
<path d="M107.984 13.3189V10.6121H111.139V13.3189H107.984ZM108.097 27.2087V15.476H111.026V27.2087H108.097Z" fill="#191919"/>
<path d="M120.591 27.2079C120.523 26.8902 120.478 26.5725 120.432 26.258C119.485 26.9347 118.496 27.3572 116.917 27.3572C114.776 27.3572 113.2 26.1531 113.2 24.1643C113.2 22.1755 113.921 20.5267 120.16 20.2757V19.9993C120.16 18.3917 119.28 17.6515 117.796 17.6515C116.669 17.6515 115.61 17.9279 114.755 18.2233V16.1106C116.217 15.4975 117.369 15.3291 118.719 15.3291C121.467 15.3291 123.021 16.9144 123.021 19.7483V22.9412C123.021 24.59 123.11 25.9212 123.315 27.2111H120.591V27.2079ZM120.163 22.2391C117.213 22.3884 116.175 22.8745 116.175 23.9737C116.175 24.8823 116.715 25.3049 117.863 25.3049C118.538 25.3049 119.506 25.0316 120.16 24.4375V22.2391H120.163Z" fill="#191919"/>
<path d="M126.108 27.2089V15.4762H128.563V17.338H128.764C129.238 16.1116 130.386 15.3079 131.895 15.3079C132.234 15.3079 132.661 15.3492 132.954 15.4127V17.9066C132.573 17.8209 132.142 17.7796 131.714 17.7796C130.093 17.7796 129.079 18.7327 129.079 20.4006V27.2089H126.104H126.108Z" fill="#191919"/>
<path d="M133.879 30.0186C134.306 30.1235 134.645 30.1457 135.051 30.1457C136.719 30.1457 137.595 29.5548 138.139 28.1792L138.206 28.0108L133.521 15.4744H136.719L139.648 24.227L142.982 15.4744H146C145.145 17.6506 141.562 26.5938 140.527 29.1513C139.648 31.2863 138.072 32.449 135.436 32.449C134.963 32.449 134.309 32.4268 133.882 32.2997V30.0155L133.879 30.0186Z" fill="#191919"/>
<path d="M1.14236 17.5584C0.946909 18.1843 0.8614 18.8769 0.922478 19.6044C1.12709 22.0316 2.85253 23.8584 4.77647 23.6837C4.92612 23.671 5.0727 23.6424 5.21623 23.6042C5.11546 23.7536 5.01773 23.9092 4.92611 24.0681C2.94415 27.4961 3.66486 31.731 6.53246 33.5228C7.95862 34.4155 9.64741 34.5331 11.2263 34.0089C11.7363 34.3965 12.347 34.6951 13.0281 34.8572C15.3093 35.4068 17.5112 34.2631 17.9479 32.306C17.9815 32.1504 18.0028 31.9947 18.012 31.8422C18.1189 31.9883 18.2258 32.1376 18.3449 32.2806C20.8674 35.2988 24.9596 35.896 27.4851 33.6118C28.7403 32.4776 29.3724 30.8446 29.3816 29.1163C29.8946 28.7287 30.3558 28.2204 30.7161 27.5945C31.9224 25.5073 31.559 22.9752 29.9038 21.9395C29.7725 21.8569 29.6381 21.7902 29.4976 21.733C29.6656 21.6726 29.8336 21.6123 30.0015 21.5392C33.541 19.9761 35.3519 16.1129 34.0449 12.9073C33.3944 11.3156 32.0965 10.1846 30.5207 9.64454C30.3252 9.01867 30.0015 8.40551 29.5434 7.85589C28.0073 6.01641 25.5795 5.59387 24.1228 6.91233C24.0098 7.01399 23.906 7.12836 23.8113 7.24591C23.8083 7.06164 23.7991 6.87738 23.7838 6.69311C23.4479 2.70281 20.4734 -0.283562 17.1386 0.0214295C15.4803 0.170748 14.0481 1.10796 13.0647 2.49948C12.4326 2.49948 11.7729 2.62974 11.1285 2.91567C8.97251 3.86877 7.83646 6.13714 8.59077 7.98933C8.64879 8.13229 8.71903 8.2689 8.79843 8.39916C8.63047 8.34515 8.45945 8.29749 8.28538 8.25619C4.53827 7.35075 0.891939 9.37132 0.13763 12.7643C-0.237997 14.4513 0.174277 16.1574 1.14236 17.5616V17.5584ZM14.5184 27.7534C12.2676 27.2546 10.1147 28.3888 9.68711 30.3236C9.49167 31.2004 9.68711 32.09 10.1635 32.8588C9.10688 33.2178 8.04107 33.167 7.16156 32.6174C5.17959 31.3783 4.89558 28.087 6.52329 25.269C8.15407 22.4478 11.0797 21.1675 13.0617 22.4065C14.5855 23.3596 15.1016 25.5263 14.5184 27.7597V27.7534ZM26.8499 32.7095C25.1062 34.2853 22.0095 33.5514 19.9359 31.067C17.8624 28.5826 17.5936 25.2912 19.3374 23.7154C20.678 22.5018 22.8188 22.6607 24.6817 23.9283C23.5304 25.9997 23.9029 28.4809 25.5368 29.5039C26.2788 29.9678 27.1523 30.0504 28.0012 29.8153C28.0012 30.9717 27.6256 32.0106 26.853 32.7127L26.8499 32.7095ZM24.3244 12.6913C25.8635 14.4704 28.2455 14.8675 29.6839 13.5681C30.3375 12.9772 30.6825 12.1385 30.7283 11.2267C31.785 11.5825 32.6187 12.2751 33.0218 13.26C33.9258 15.4743 32.295 18.3082 29.3846 19.5949C26.4743 20.8816 23.3807 20.1286 22.4768 17.9142C21.7835 16.2114 22.5898 14.1432 24.3213 12.6945L24.3244 12.6913ZM16.3995 4.53911C16.0606 3.70992 15.4009 3.10947 14.5825 2.78224C15.236 1.84502 16.1247 1.23504 17.1477 1.14291C19.4504 0.933226 21.5392 3.42081 21.8141 6.69947C22.0889 9.97812 20.4459 12.8056 18.1433 13.0122C16.3721 13.1742 14.7321 11.735 13.9412 9.57465C16.0453 8.60249 17.1447 6.36906 16.3995 4.54229V4.53911ZM1.16373 13.1011C1.68289 10.7597 4.6024 9.46027 7.68682 10.2005C10.7682 10.9408 12.8448 13.441 12.3257 15.7825C11.9256 17.5838 10.1055 18.7657 7.88227 18.8769C7.64407 16.4973 5.94 14.7182 4.04049 14.8898C3.1793 14.9692 2.42499 15.4362 1.87223 16.1447C1.2187 15.2106 0.934693 14.14 1.16679 13.0979L1.16373 13.1011Z" fill="url(#paint0_linear_862_533)"/>
<defs>
<linearGradient id="paint0_linear_862_533" x1="28.9754" y1="32.0836" x2="3.73475" y2="7.81801" gradientUnits="userSpaceOnUse">
<stop offset="0.17" stop-color="#BE2720"/>
<stop offset="0.78" stop-color="#E97142"/>
</linearGradient>
</defs>
</svg>
