<svg width="48" height="58" viewBox="0 0 48 58" fill="none" xmlns="http://www.w3.org/2000/svg">
<path d="M7.43806 1.24119C4.39429 3.15307 6.63907 17.0594 6.63907 17.0594L18.8142 9.41186C18.8142 9.41186 10.4818 -0.670694 7.43806 1.24119Z" fill="#EFCB9B" stroke="#47403F" stroke-width="1.10337" stroke-miterlimit="10"/>
<path d="M40.7878 1.44135C43.7079 3.66712 40.6737 16.6603 40.6737 16.6603L28.9932 7.75721C28.9932 7.75721 37.8677 -0.784419 40.7878 1.44135Z" fill="#EFCB9B" stroke="#47403F" stroke-width="1.10337" stroke-miterlimit="10"/>
<path opacity="0.29" d="M38.1618 5.08387C39.7312 6.28236 38.1047 13.2831 38.1047 13.2831L31.8174 8.48911C31.8174 8.48911 36.5923 3.88538 38.1713 5.08387H38.1618Z" fill="#47403F"/>
<path opacity="0.29" d="M9.68268 5.3784C8.04665 6.40568 9.25465 13.901 9.25465 13.901L15.8178 9.78239C15.8178 9.78239 11.3282 4.35113 9.69219 5.38792L9.68268 5.3784Z" fill="#47403F"/>
<path d="M23.6088 38.9363C33.343 38.9363 41.2341 31.5519 41.2341 22.4428C41.2341 13.3336 33.343 5.94922 23.6088 5.94922C13.8745 5.94922 5.9834 13.3336 5.9834 22.4428C5.9834 31.5519 13.8745 38.9363 23.6088 38.9363Z" fill="#EFCB9B" stroke="#47403F" stroke-width="1.10337" stroke-miterlimit="10"/>
<path d="M25.8439 22.3952C25.8439 23.5271 24.3981 24.9729 23.4279 24.9729C22.4577 24.9729 21.0119 23.5271 21.0119 22.3952C21.0119 21.2633 20.6981 20.8828 23.4279 20.8828C26.1578 20.8828 25.8439 21.2728 25.8439 22.3952Z" fill="#47403F"/>
<path d="M23.4835 25.2588C23.4835 26.0768 22.6369 26.7426 21.6001 26.7426C20.5633 26.7426 19.7168 26.0768 19.7168 25.2588" stroke="#47403F" stroke-width="0.827528" stroke-linecap="round" stroke-linejoin="round"/>
<path d="M27.5079 25.2588C27.5079 26.0768 26.6613 26.7426 25.6245 26.7426C24.5878 26.7426 23.7412 26.0768 23.7412 25.2588" stroke="#47403F" stroke-width="0.827528" stroke-linecap="round" stroke-linejoin="round"/>
<path d="M16.0091 22.9099C17.8005 22.9099 19.2527 21.3513 19.2527 19.4286C19.2527 17.5059 17.8005 15.9473 16.0091 15.9473C14.2178 15.9473 12.7656 17.5059 12.7656 19.4286C12.7656 21.3513 14.2178 22.9099 16.0091 22.9099Z" fill="#47403F"/>
<path d="M15.4657 19.8287C16.1749 19.8287 16.7498 19.2113 16.7498 18.4495C16.7498 17.6878 16.1749 17.0703 15.4657 17.0703C14.7565 17.0703 14.1816 17.6878 14.1816 18.4495C14.1816 19.2113 14.7565 19.8287 15.4657 19.8287Z" fill="#F9FAFB"/>
<path d="M32.1019 22.9094C33.8933 22.9094 35.3454 21.3508 35.3454 19.4281C35.3454 17.5054 33.8933 15.9468 32.1019 15.9468C30.3106 15.9468 28.8584 17.5054 28.8584 19.4281C28.8584 21.3508 30.3106 22.9094 32.1019 22.9094Z" fill="#47403F"/>
<path d="M31.5585 19.8283C32.2677 19.8283 32.8426 19.2108 32.8426 18.449C32.8426 17.6873 32.2677 17.0698 31.5585 17.0698C30.8493 17.0698 30.2744 17.6873 30.2744 18.449C30.2744 19.2108 30.8493 19.8283 31.5585 19.8283Z" fill="#F9FAFB"/>
<path d="M4.31738 21.0356C6.38144 21.8632 8.55965 22.4624 10.6332 23.8131" stroke="#47403F" stroke-width="1.11288" stroke-miterlimit="10" stroke-linecap="round"/>
<path d="M10.6519 26.4575C8.66394 26.6002 6.30502 27.0853 4.23145 28.9306" stroke="#47403F" stroke-width="1.11288" stroke-miterlimit="10" stroke-linecap="round"/>
<path d="M3.52734 25.1066C5.84822 24.3837 8.50202 24.3837 10.8229 25.1066" stroke="#47403F" stroke-width="1.11288" stroke-miterlimit="10" stroke-linecap="round"/>
<path d="M42.6498 20.75C40.5858 21.6441 38.4076 22.3004 36.334 23.7177" stroke="#47403F" stroke-width="1.11288" stroke-miterlimit="10" stroke-linecap="round"/>
<path d="M36.3154 26.5518C38.2939 26.7515 40.6623 27.3032 42.7359 29.2056" stroke="#47403F" stroke-width="1.11288" stroke-miterlimit="10" stroke-linecap="round"/>
<path d="M43.4401 25.0969C41.1192 24.374 38.4654 24.374 36.1445 25.0969" stroke="#47403F" stroke-width="1.11288" stroke-miterlimit="10" stroke-linecap="round"/>
<path opacity="0.5" d="M23.6094 6.7002V12.8448" stroke="#47403F" stroke-width="2.68233" stroke-miterlimit="10" stroke-linecap="round"/>
<path opacity="0.5" d="M18.9932 7.72803V11.2474" stroke="#47403F" stroke-width="2.68233" stroke-miterlimit="10" stroke-linecap="round"/>
<path opacity="0.5" d="M27.5752 7.72803V11.2474" stroke="#47403F" stroke-width="2.68233" stroke-miterlimit="10" stroke-linecap="round"/>
<path opacity="0.38" d="M23.4836 33.7711C18.585 33.7711 14.0289 33.0957 10.2432 31.9258C12.8304 35.2359 17.786 37.4902 23.4836 37.4902C29.1812 37.4902 34.1368 35.2454 36.724 31.9258C32.9478 33.0862 28.3917 33.7711 23.4836 33.7711Z" fill="#47403F"/>
<path d="M20.775 56.7624C21.3553 54.1086 1.58022 50.2373 1 52.8911L1.47559 33.154C1.96069 30.9187 21.7357 34.79 21.2506 37.0253L20.775 56.7624Z" fill="url(#paint0_linear_971_3420)" stroke="#47403F" stroke-width="1.10337" stroke-miterlimit="10"/>
<path d="M26.6441 56.9996C26.1971 54.3268 46.1433 51.0452 46.5904 53.718L47.066 33.981C46.6855 31.7267 26.7392 35.0083 27.1197 37.2626L26.6441 56.9996Z" fill="url(#paint1_linear_971_3420)" stroke="#47403F" stroke-width="1.10337" stroke-miterlimit="10"/>
<path d="M26.6442 56.9998L20.7754 56.9142L21.251 37.0249L27.1198 37.12L26.6442 56.9998Z" fill="url(#paint2_linear_971_3420)" stroke="#47403F" stroke-width="1.10337" stroke-miterlimit="10"/>
<path d="M12.184 38.9656C14.3588 38.9656 16.1219 37.2026 16.1219 35.0277C16.1219 32.8529 14.3588 31.0898 12.184 31.0898C10.0091 31.0898 8.24609 32.8529 8.24609 35.0277C8.24609 37.2026 10.0091 38.9656 12.184 38.9656Z" fill="#EFCB9B" stroke="#47403F" stroke-width="1.10337" stroke-miterlimit="10"/>
<path d="M35.7064 38.9266C37.8813 38.9266 39.6443 37.1635 39.6443 34.9887C39.6443 32.8138 37.8813 31.0508 35.7064 31.0508C33.5316 31.0508 31.7686 32.8138 31.7686 34.9887C31.7686 37.1635 33.5316 38.9266 35.7064 38.9266Z" fill="#EFCB9B" stroke="#47403F" stroke-width="1.10337" stroke-miterlimit="10"/>
<defs>
<linearGradient id="paint0_linear_971_3420" x1="43.8697" y1="64.8379" x2="-0.170053" y2="37.7769" gradientUnits="userSpaceOnUse">
<stop stop-color="#BA5700"/>
<stop offset="0.49" stop-color="#EF9605"/>
<stop offset="1" stop-color="#F3C071"/>
</linearGradient>
<linearGradient id="paint1_linear_971_3420" x1="50.6234" y1="53.8607" x2="6.57412" y2="26.7997" gradientUnits="userSpaceOnUse">
<stop stop-color="#BA5700"/>
<stop offset="0.49" stop-color="#EF9605"/>
<stop offset="1" stop-color="#F3C071"/>
</linearGradient>
<linearGradient id="paint2_linear_971_3420" x1="46.3621" y1="60.7855" x2="2.31289" y2="33.7245" gradientUnits="userSpaceOnUse">
<stop stop-color="#BA5700"/>
<stop offset="0.49" stop-color="#EF9605"/>
<stop offset="1" stop-color="#F3C071"/>
</linearGradient>
</defs>
</svg>
