<svg width="132" height="157" viewBox="0 0 132 157" fill="none" xmlns="http://www.w3.org/2000/svg">
<path d="M15.2282 61.4007C15.2282 68.7298 17.074 75.6245 20.2499 81.8135C32.7364 82.0849 45.4401 85.2337 57.3566 91.3141H73.6705C85.587 85.2337 98.2907 82.0849 110.777 81.8135C113.953 75.6245 115.799 68.7298 115.799 61.4007C115.799 57.2747 115.175 53.2845 114.116 49.4842C115.826 38.1649 119.952 5.83566 111.917 0.759611C105.918 -3.04064 93.1875 8.38725 84.2298 17.7522C78.448 15.5806 72.1233 14.3591 65.5 14.3591C58.8767 14.3591 52.5792 15.5806 46.7702 17.7522C37.8396 8.36011 25.0817 -3.04064 19.1098 0.759611C11.1022 5.83566 15.201 38.1649 16.9111 49.4842C15.8525 53.3116 15.2282 57.2747 15.2282 61.4007Z" fill="#EFCB9B"/>
<path d="M73.6705 101.798H57.3566C38.8711 92.3784 18.4855 89.9354 0 94.4685C0 112.737 0 131.005 0 149.246C18.4855 144.713 38.8711 147.156 57.3566 156.575H73.6705C92.156 147.156 112.542 144.713 131.027 149.246V94.4685C112.542 89.9354 92.156 92.3784 73.6705 101.798Z" fill="url(#paint0_linear_1005_3205)"/>
<path d="M71.853 61.2657C71.853 64.4959 67.727 68.6219 64.9583 68.6219C62.1895 68.6219 58.0635 64.4959 58.0635 61.2657C58.0635 58.0355 57.1678 56.9497 64.9583 56.9497C72.7488 56.9497 71.853 58.0626 71.853 61.2657Z" fill="#907963"/>
<path d="M65.1213 69.4365C65.1213 71.771 62.7055 73.6711 59.7467 73.6711C56.7879 73.6711 54.3721 71.771 54.3721 69.4365" stroke="#907963" stroke-width="2.36158" stroke-linecap="round" stroke-linejoin="round"/>
<path d="M76.6311 69.4365C76.6311 71.771 74.2152 73.6711 71.2565 73.6711C68.2977 73.6711 65.8818 71.771 65.8818 69.4365" stroke="#907963" stroke-width="2.36158" stroke-linecap="round" stroke-linejoin="round"/>
<path d="M42.5356 62.5144C47.6477 62.5144 51.7919 58.0664 51.7919 52.5795C51.7919 47.0926 47.6477 42.6445 42.5356 42.6445C37.4235 42.6445 33.2793 47.0926 33.2793 52.5795C33.2793 58.0664 37.4235 62.5144 42.5356 62.5144Z" fill="#47403F"/>
<path d="M40.9887 53.7201C43.0126 53.7201 44.6533 51.9579 44.6533 49.7841C44.6533 47.6103 43.0126 45.8481 40.9887 45.8481C38.9649 45.8481 37.3242 47.6103 37.3242 49.7841C37.3242 51.9579 38.9649 53.7201 40.9887 53.7201Z" fill="#F9FAFB"/>
<path d="M88.4643 63.0037C93.5765 63.0037 97.7206 58.5556 97.7206 53.0687C97.7206 47.5818 93.5765 43.1338 88.4643 43.1338C83.3522 43.1338 79.208 47.5818 79.208 53.0687C79.208 58.5556 83.3522 63.0037 88.4643 63.0037Z" fill="#47403F"/>
<path d="M86.9175 54.2093C88.9413 54.2093 90.582 52.4472 90.582 50.2734C90.582 48.0996 88.9413 46.3374 86.9175 46.3374C84.8936 46.3374 83.2529 48.0996 83.2529 50.2734C83.2529 52.4472 84.8936 54.2093 86.9175 54.2093Z" fill="#F9FAFB"/>
<path d="M122.205 57.3281C114.741 58.3868 107.629 60.0426 101.467 65.4715" stroke="#907963" stroke-width="3.17592" stroke-miterlimit="10" stroke-linecap="round"/>
<path d="M101.766 75.7598C107.412 76.2755 114.171 77.877 120.088 83.2788" stroke="#907963" stroke-width="3.17592" stroke-miterlimit="10" stroke-linecap="round"/>
<path d="M122.125 70.3032C115.474 68.3216 107.928 68.3216 101.305 70.3575" stroke="#907963" stroke-width="3.17592" stroke-miterlimit="10" stroke-linecap="round"/>
<path d="M8.79492 57.3286C16.2597 58.3873 23.3987 60.0431 29.5334 65.472" stroke="#907963" stroke-width="3.17592" stroke-miterlimit="10" stroke-linecap="round"/>
<path d="M29.2621 75.7598C23.616 76.2755 16.857 77.877 10.9395 83.2788" stroke="#907963" stroke-width="3.17592" stroke-miterlimit="10" stroke-linecap="round"/>
<path d="M8.9043 70.3032C15.5547 68.3216 23.1009 68.3216 29.7242 70.3575" stroke="#907963" stroke-width="3.17592" stroke-miterlimit="10" stroke-linecap="round"/>
<path d="M49.4307 16.8831V28.8811C49.4307 30.9984 51.1408 32.7085 53.2581 32.7085C55.3753 32.7085 57.0855 30.9984 57.0855 28.8811V15.0645C54.4524 15.4988 51.9008 16.0959 49.4307 16.8831Z" fill="#907963"/>
<path d="M77.7415 32.7085C79.8587 32.7085 81.5688 30.9984 81.5688 28.8811V16.8831C79.0987 16.0959 76.5471 15.4716 73.9141 15.0645V28.8811C73.9141 30.9984 75.6242 32.7085 77.7415 32.7085Z" fill="#907963"/>
<path d="M65.5002 41.0154C67.6175 41.0154 69.3276 39.3053 69.3276 37.188V14.5222C68.0518 14.4408 66.8032 14.3594 65.5002 14.3594C64.1973 14.3594 62.9486 14.4408 61.6729 14.5222V37.2152C61.6729 39.3324 63.383 41.0426 65.5002 41.0426V41.0154Z" fill="#907963"/>
<defs>
<linearGradient id="paint0_linear_1005_3205" x1="130.003" y1="166.506" x2="9.85392" y2="85.3858" gradientUnits="userSpaceOnUse">
<stop stop-color="#F3C071"/>
<stop offset="0.51" stop-color="#EF9605"/>
<stop offset="1" stop-color="#BA5700"/>
</linearGradient>
</defs>
</svg>
