<svg width="214" height="65" viewBox="0 0 214 65" fill="none" xmlns="http://www.w3.org/2000/svg">
<path d="M93.1213 13.8827H97.2049V23.2641H93.1213V13.8827ZM95.1815 16.2741H105.887V19.4012H95.1815V16.2741ZM87.0877 21.535H104.048V24.8829H87.0877V21.535ZM102.797 21.535H103.386L104.011 21.4246L106.917 22.0133C106.549 24.0367 106.145 26.428 105.74 27.9732L102.245 27.1638C102.429 25.8026 102.687 23.7056 102.797 21.9765V21.535ZM89.7366 27.5685L101.693 26.612L101.914 29.408L89.9941 30.4013L89.7366 27.5685ZM93.0477 24.7725H96.8002V30.4381C96.8002 31.3946 97.021 31.505 98.3086 31.505C98.934 31.505 101.583 31.505 102.355 31.505C103.349 31.505 103.57 31.1739 103.68 29.2976C104.452 29.8127 105.887 30.2909 106.881 30.5117C106.513 33.6388 105.483 34.485 102.76 34.485C101.951 34.485 98.6397 34.485 97.8303 34.485C93.9674 34.485 93.0477 33.5652 93.0477 30.4749V24.7725ZM85.1379 21.535H89.148V30.0702C89.148 35.5151 88.4858 43.4249 84.4757 48.4283C83.8135 47.6925 82.0843 46.368 81.2014 45.9266C84.8068 41.3646 85.1379 34.8161 85.1379 30.0334V21.535ZM91.5761 35.7726H95.439C95.2183 42.0636 94.2985 46.1841 88.8904 48.5018C88.4858 47.5453 87.4556 46.1105 86.6463 45.4115C90.9139 43.6824 91.3553 40.7392 91.5761 35.7726ZM97.6464 35.7726H101.656V43.4617C101.656 44.455 101.73 44.5653 102.245 44.5653C102.429 44.5653 103.238 44.5653 103.459 44.5653C104.048 44.5653 104.158 44.0503 104.269 40.4817C105.004 41.1439 106.697 41.7693 107.727 42.0269C107.396 46.8831 106.439 48.1707 103.937 48.1707C103.312 48.1707 102.098 48.1707 101.473 48.1707C98.3454 48.1707 97.6464 46.9935 97.6464 43.5352V35.7726ZM72.9605 17.0835H84.1446V21.0567H72.9605V17.0835ZM73.218 27.2742H83.6295V31.1371H73.218V27.2742ZM72.2247 39.0469C75.2047 38.4215 79.5459 37.3914 83.7031 36.3612L84.1814 40.3345C80.392 41.3279 76.3084 42.3948 73.0341 43.2041L72.2247 39.0469ZM76.4923 18.6654H80.5024V39.2676L76.4923 40.2977V18.6654ZM109.64 15.9798H121.854V20.1002H109.64V15.9798ZM110.008 26.5752H121.229V30.6588H110.008V26.5752ZM109.235 40.5553C112.399 39.7459 117.108 38.2743 121.523 36.8395L122.295 41.0703C118.175 42.4683 113.76 43.9031 110.228 45.0436L109.235 40.5553ZM113.723 17.5985H117.917V40.2242L113.723 40.8864V17.5985ZM123.289 20.3945H142.603V47.9868H138.005V24.5885H127.704V48.2443H123.289V20.3945ZM126.011 31.1739H139.513V35.3311H126.011V31.1739ZM126.011 42.174H139.513V46.368H126.011V42.174ZM130.352 13.9563L135.613 14.5082C134.694 17.5617 133.59 20.7256 132.67 22.8226L128.55 22.1236C129.286 19.8427 130.058 16.458 130.352 13.9563ZM147.092 16.0901H172.771V47.95H168.025V20.5417H151.654V47.9868H147.092V16.0901ZM150.219 28.4515H170.012V32.8294H150.219V28.4515ZM150.182 41.1439H170.012V45.5955H150.182V41.1439ZM195.985 27.6421H208.089V31.7993H195.985V27.6421ZM194.183 27.6421H198.634V42.1372C198.634 43.7192 198.965 43.9399 200.731 43.9399C201.54 43.9399 204.962 43.9399 205.955 43.9399C207.611 43.9399 207.905 43.0938 208.126 38.4583C209.119 39.194 210.995 39.9298 212.246 40.2242C211.694 46.3312 210.444 48.1339 206.286 48.1339C205.256 48.1339 201.136 48.1339 200.179 48.1339C195.581 48.1339 194.183 46.8463 194.183 42.1372V27.6421ZM194.072 15.7222H210.26V33.6756H205.808V19.9163H194.072V15.7222ZM179.283 25.1772H191.166V28.4883H179.283V25.1772ZM179.503 15.0232H191.276V18.3711H179.503V15.0232ZM179.283 30.1806H191.166V33.5284H179.283V30.1806ZM177.48 19.9898H192.637V23.4849H177.48V19.9898ZM181.306 35.2943H191.055V46.4784H181.306V42.9834H187.192V38.7894H181.306V35.2943ZM179.172 35.2943H182.998V47.95H179.172V35.2943Z" fill="url(#paint0_linear_1005_6629)"/>
<path d="M6.66279 25.5953C6.66279 28.5912 7.41731 31.4096 8.71555 33.9395C13.8197 34.0504 19.0126 35.3376 23.8838 37.8231H30.5525C35.4237 35.3376 40.6166 34.0504 45.7208 33.9395C47.019 31.4096 47.7735 28.5912 47.7735 25.5953C47.7735 23.9087 47.5183 22.2776 47.0856 20.7241C47.7846 16.0971 49.4712 2.88168 46.1868 0.806718C43.7346 -0.746728 38.5305 3.9247 34.8689 7.75284C32.5054 6.86515 29.92 6.36583 27.2126 6.36583C24.5052 6.36583 21.9309 6.86515 19.5564 7.75284C15.9058 3.91361 10.6906 -0.746728 8.24952 0.806718C4.97619 2.88168 6.65169 16.0971 7.35074 20.7241C6.91799 22.2886 6.66279 23.9087 6.66279 25.5953Z" fill="#EFCB9B"/>
<path d="M30.5521 42.108H23.8834C16.327 38.2577 7.99388 37.259 0.4375 39.1121C0.4375 46.5797 0.4375 54.0473 0.4375 61.5039C7.99388 59.6508 16.327 60.6495 23.8834 64.4998H30.5521C38.1085 60.6495 46.4416 59.6508 53.998 61.5039V39.1121C46.4416 37.259 38.1085 38.2577 30.5521 42.108Z" fill="url(#paint1_linear_1005_6629)"/>
<path d="M29.8088 25.5401C29.8088 26.8606 28.1222 28.5472 26.9904 28.5472C25.8586 28.5472 24.172 26.8606 24.172 25.5401C24.172 24.2197 23.8058 23.7759 26.9904 23.7759C30.1749 23.7759 29.8088 24.2308 29.8088 25.5401Z" fill="#907963"/>
<path d="M27.0581 28.8804C27.0581 29.8346 26.0705 30.6114 24.8611 30.6114C23.6516 30.6114 22.6641 29.8346 22.6641 28.8804" stroke="#907963" stroke-width="0.965354" stroke-linecap="round" stroke-linejoin="round"/>
<path d="M31.7622 28.8804C31.7622 29.8346 30.7746 30.6114 29.5652 30.6114C28.3557 30.6114 27.3682 29.8346 27.3682 28.8804" stroke="#907963" stroke-width="0.965354" stroke-linecap="round" stroke-linejoin="round"/>
<path d="M17.8248 26.051C19.9145 26.051 21.6085 24.2328 21.6085 21.9899C21.6085 19.747 19.9145 17.9287 17.8248 17.9287C15.7351 17.9287 14.041 19.747 14.041 21.9899C14.041 24.2328 15.7351 26.051 17.8248 26.051Z" fill="#47403F"/>
<path d="M17.1923 22.4566C18.0196 22.4566 18.6903 21.7363 18.6903 20.8477C18.6903 19.9591 18.0196 19.2388 17.1923 19.2388C16.365 19.2388 15.6943 19.9591 15.6943 20.8477C15.6943 21.7363 16.365 22.4566 17.1923 22.4566Z" fill="#F9FAFB"/>
<path d="M36.6001 26.2512C38.6898 26.2512 40.3839 24.433 40.3839 22.1901C40.3839 19.9471 38.6898 18.1289 36.6001 18.1289C34.5104 18.1289 32.8164 19.9471 32.8164 22.1901C32.8164 24.433 34.5104 26.2512 36.6001 26.2512Z" fill="#47403F"/>
<path d="M35.9696 22.6558C36.7969 22.6558 37.4676 21.9355 37.4676 21.0469C37.4676 20.1583 36.7969 19.438 35.9696 19.438C35.1423 19.438 34.4717 20.1583 34.4717 21.0469C34.4717 21.9355 35.1423 22.6558 35.9696 22.6558Z" fill="#F9FAFB"/>
<path d="M50.3924 23.9312C47.341 24.3639 44.4338 25.0408 41.915 27.26" stroke="#907963" stroke-width="1.29824" stroke-miterlimit="10" stroke-linecap="round"/>
<path d="M42.0361 31.4653C44.3441 31.6762 47.107 32.3308 49.5259 34.5389" stroke="#907963" stroke-width="1.29824" stroke-miterlimit="10" stroke-linecap="round"/>
<path d="M50.3583 29.2351C47.6398 28.4251 44.5551 28.4251 41.8477 29.2573" stroke="#907963" stroke-width="1.29824" stroke-miterlimit="10" stroke-linecap="round"/>
<path d="M4.0332 23.9307C7.08461 24.3634 10.0029 25.0403 12.5106 27.2595" stroke="#907963" stroke-width="1.29824" stroke-miterlimit="10" stroke-linecap="round"/>
<path d="M12.399 31.4653C10.091 31.6762 7.32811 32.3308 4.90918 34.5389" stroke="#907963" stroke-width="1.29824" stroke-miterlimit="10" stroke-linecap="round"/>
<path d="M4.07715 29.2342C6.79567 28.4241 9.88036 28.4241 12.5878 29.2563" stroke="#907963" stroke-width="1.29824" stroke-miterlimit="10" stroke-linecap="round"/>
<path d="M20.6445 7.39773V12.3022C20.6445 13.1677 21.3436 13.8667 22.2091 13.8667C23.0746 13.8667 23.7736 13.1677 23.7736 12.3022V6.6543C22.6973 6.83183 21.6543 7.07595 20.6445 7.39773Z" fill="#907963"/>
<path d="M32.2169 13.8662C33.0824 13.8662 33.7814 13.1672 33.7814 12.3017V7.39724C32.7717 7.07546 31.7287 6.82025 30.6523 6.65381V12.3017C30.6523 13.1672 31.3514 13.8662 32.2169 13.8662Z" fill="#907963"/>
<path d="M27.214 17.262C28.0794 17.262 28.7785 16.563 28.7785 15.6975V6.4323C28.257 6.39901 27.7466 6.36572 27.214 6.36572C26.6813 6.36572 26.1709 6.39901 25.6494 6.4323V15.7086C25.6494 16.5741 26.3485 17.2731 27.214 17.2731V17.262Z" fill="#907963"/>
<defs>
<linearGradient id="paint0_linear_1005_6629" x1="212.452" y1="46.6684" x2="175.903" y2="-28.1161" gradientUnits="userSpaceOnUse">
<stop stop-color="#F3C071"/>
<stop offset="0.51" stop-color="#EF9605"/>
<stop offset="1" stop-color="#BA5700"/>
</linearGradient>
<linearGradient id="paint1_linear_1005_6629" x1="53.5793" y1="68.5591" x2="4.46545" y2="35.3994" gradientUnits="userSpaceOnUse">
<stop stop-color="#F3C071"/>
<stop offset="0.51" stop-color="#EF9605"/>
<stop offset="1" stop-color="#BA5700"/>
</linearGradient>
</defs>
</svg>
