<svg width="204" height="58" viewBox="0 0 204 58" fill="none" xmlns="http://www.w3.org/2000/svg">
<g clip-path="url(#clip0_945_3845)">
<path d="M7.78855 1.5476C4.77848 3.43829 6.99841 17.1905 6.99841 17.1905L19.0387 9.62774C19.0387 9.62774 10.7986 -0.343101 7.78855 1.5476Z" fill="#EFCB9B" stroke="#47403F" stroke-width="1.09115" stroke-miterlimit="10"/>
<path d="M40.7675 1.74536C43.6553 3.94647 40.6546 16.7957 40.6546 16.7957L29.1035 7.99124C29.1035 7.99124 37.8797 -0.455752 40.7675 1.74536Z" fill="#EFCB9B" stroke="#47403F" stroke-width="1.09115" stroke-miterlimit="10"/>
<path opacity="0.29" d="M38.1725 5.34826C39.7246 6.53348 38.1161 13.4566 38.1161 13.4566L31.8984 8.71577C31.8984 8.71577 36.6205 4.16305 38.1819 5.34826H38.1725Z" fill="#47403F"/>
<path opacity="0.29" d="M10.0091 5.63926C8.39121 6.65516 9.58583 14.0674 9.58583 14.0674L16.0763 9.99444C16.0763 9.99444 11.6364 4.62336 10.0185 5.64867L10.0091 5.63926Z" fill="#47403F"/>
<path d="M23.7798 38.8257C33.4062 38.8257 41.2099 31.5231 41.2099 22.5149C41.2099 13.5067 33.4062 6.2041 23.7798 6.2041C14.1534 6.2041 6.34961 13.5067 6.34961 22.5149C6.34961 31.5231 14.1534 38.8257 23.7798 38.8257Z" fill="#EFCB9B" stroke="#47403F" stroke-width="1.09115" stroke-miterlimit="10"/>
<path d="M25.9905 22.4673C25.9905 23.5867 24.5607 25.0165 23.6013 25.0165C22.6418 25.0165 21.212 23.5867 21.212 22.4673C21.212 21.3479 20.9016 20.9717 23.6013 20.9717C26.3009 20.9717 25.9905 21.3573 25.9905 22.4673Z" fill="#47403F"/>
<path d="M23.6576 25.2988C23.6576 26.1078 22.8204 26.7662 21.7951 26.7662C20.7698 26.7662 19.9326 26.1078 19.9326 25.2988" stroke="#47403F" stroke-width="0.818361" stroke-linecap="round" stroke-linejoin="round"/>
<path d="M27.6371 25.2988C27.6371 26.1078 26.7999 26.7662 25.7746 26.7662C24.7493 26.7662 23.9121 26.1078 23.9121 25.2988" stroke="#47403F" stroke-width="0.818361" stroke-linecap="round" stroke-linejoin="round"/>
<path d="M16.2642 22.9754C18.0357 22.9754 19.4718 21.434 19.4718 19.5326C19.4718 17.6312 18.0357 16.0898 16.2642 16.0898C14.4927 16.0898 13.0566 17.6312 13.0566 19.5326C13.0566 21.434 14.4927 22.9754 16.2642 22.9754Z" fill="#47403F"/>
<path d="M15.7279 19.9281C16.4292 19.9281 16.9977 19.3174 16.9977 18.5641C16.9977 17.8109 16.4292 17.2002 15.7279 17.2002C15.0265 17.2002 14.458 17.8109 14.458 18.5641C14.458 19.3174 15.0265 19.9281 15.7279 19.9281Z" fill="#F9FAFB"/>
<path d="M32.1793 22.9754C33.9508 22.9754 35.3869 21.434 35.3869 19.5326C35.3869 17.6312 33.9508 16.0898 32.1793 16.0898C30.4078 16.0898 28.9717 17.6312 28.9717 19.5326C28.9717 21.434 30.4078 22.9754 32.1793 22.9754Z" fill="#47403F"/>
<path d="M31.6429 19.9281C32.3442 19.9281 32.9128 19.3174 32.9128 18.5641C32.9128 17.8109 32.3442 17.2002 31.6429 17.2002C30.9416 17.2002 30.373 17.8109 30.373 18.5641C30.373 19.3174 30.9416 19.9281 31.6429 19.9281Z" fill="#F9FAFB"/>
<path d="M4.70312 21.1226C6.74432 21.9409 8.8984 22.5335 10.949 23.8692" stroke="#47403F" stroke-width="1.10055" stroke-miterlimit="10" stroke-linecap="round"/>
<path d="M10.9685 26.4844C9.00255 26.6255 6.66975 27.1052 4.61914 28.9301" stroke="#47403F" stroke-width="1.10055" stroke-miterlimit="10" stroke-linecap="round"/>
<path d="M3.92285 25.1485C6.21803 24.4336 8.84242 24.4336 11.1376 25.1485" stroke="#47403F" stroke-width="1.10055" stroke-miterlimit="10" stroke-linecap="round"/>
<path d="M42.6121 20.8403C40.5709 21.7245 38.4168 22.3736 36.3662 23.7751" stroke="#47403F" stroke-width="1.10055" stroke-miterlimit="10" stroke-linecap="round"/>
<path d="M36.3467 26.5781C38.3032 26.7757 40.6454 27.3212 42.696 29.2025" stroke="#47403F" stroke-width="1.10055" stroke-miterlimit="10" stroke-linecap="round"/>
<path d="M43.3925 25.1392C41.0973 24.4243 38.4729 24.4243 36.1777 25.1392" stroke="#47403F" stroke-width="1.10055" stroke-miterlimit="10" stroke-linecap="round"/>
<path opacity="0.5" d="M23.7803 6.94678V13.0233" stroke="#47403F" stroke-width="2.65262" stroke-miterlimit="10" stroke-linecap="round"/>
<path opacity="0.5" d="M19.2178 7.96289V11.4433" stroke="#47403F" stroke-width="2.65262" stroke-miterlimit="10" stroke-linecap="round"/>
<path opacity="0.5" d="M27.7031 7.96289V11.4433" stroke="#47403F" stroke-width="2.65262" stroke-miterlimit="10" stroke-linecap="round"/>
<path opacity="0.38" d="M23.6582 33.7174C18.8139 33.7174 14.3082 33.0496 10.5645 31.8926C13.123 35.166 18.0238 37.3954 23.6582 37.3954C29.2927 37.3954 34.1935 35.1754 36.752 31.8926C33.0177 33.0402 28.512 33.7174 23.6582 33.7174Z" fill="#47403F"/>
<path d="M20.9779 56.4533C21.5517 53.8289 1.99567 50.0005 1.42188 52.6249L1.8922 33.1065C2.37193 30.896 21.9279 34.7244 21.4482 36.9349L20.9779 56.4533Z" fill="url(#paint0_linear_945_3845)" stroke="#47403F" stroke-width="1.09115" stroke-miterlimit="10"/>
<path d="M26.7817 56.6883C26.3396 54.0451 46.065 50.7999 46.5071 53.4431L46.9774 33.9247C46.6011 31.6954 26.8758 34.9406 27.2521 37.17L26.7817 56.6883Z" fill="url(#paint1_linear_945_3845)" stroke="#47403F" stroke-width="1.09115" stroke-miterlimit="10"/>
<path d="M26.7823 56.6886L20.9785 56.6039L21.4488 36.9351L27.2526 37.0291L26.7823 56.6886Z" fill="url(#paint2_linear_945_3845)" stroke="#47403F" stroke-width="1.09115" stroke-miterlimit="10"/>
<path d="M12.4831 38.8535C14.6339 38.8535 16.3774 37.11 16.3774 34.9592C16.3774 32.8085 14.6339 31.0649 12.4831 31.0649C10.3324 31.0649 8.58887 32.8085 8.58887 34.9592C8.58887 37.11 10.3324 38.8535 12.4831 38.8535Z" fill="#EFCB9B" stroke="#47403F" stroke-width="1.09115" stroke-miterlimit="10"/>
<path d="M35.7449 38.8159C37.8956 38.8159 39.6391 37.0724 39.6391 34.9216C39.6391 32.7709 37.8956 31.0273 35.7449 31.0273C33.5941 31.0273 31.8506 32.7709 31.8506 34.9216C31.8506 37.0724 33.5941 38.8159 35.7449 38.8159Z" fill="#EFCB9B" stroke="#47403F" stroke-width="1.09115" stroke-miterlimit="10"/>
</g>
<path d="M84.1372 13.3452H86.6926V22.2892H84.1372V13.3452ZM85.4514 16.2292H96.0016V18.31H85.4514V16.2292ZM77.3835 21.1575H95.162V23.3844H77.3835V21.1575ZM94.3588 21.1575H94.7239L95.162 21.0845L96.9508 21.5225C96.5127 23.2748 96.0381 25.3557 95.6366 26.7064L93.4097 26.1223C93.7017 24.8811 94.1033 23.0558 94.3588 21.486V21.1575ZM79.6469 27.2905L92.351 25.9033L92.5335 27.8016L79.866 29.1888L79.6469 27.2905ZM84.0276 23.8589H86.4005V30.138C86.4005 31.0141 86.6561 31.1236 88.0798 31.1236C88.7734 31.1236 92.278 31.1236 93.1906 31.1236C94.2493 31.1236 94.4684 30.8316 94.5779 28.6412C95.089 29.0063 96.0016 29.2983 96.6952 29.4443C96.4397 32.3648 95.7096 33.1315 93.4462 33.1315C92.7891 33.1315 88.5544 33.1315 87.8973 33.1315C84.7943 33.1315 84.0276 32.5474 84.0276 30.1745V23.8589ZM76.1058 21.1575H78.6247V29.8459C78.6247 34.9568 78.0041 42.1484 74.1345 46.9307C73.6964 46.4927 72.6378 45.653 72.0537 45.361C75.7043 40.8342 76.1058 34.5552 76.1058 29.8094V21.1575ZM82.3119 35.0298H84.7578C84.4657 41.0898 83.3705 44.8864 78.4057 47.0403C78.1502 46.4562 77.4566 45.5435 76.909 45.1054C81.2532 43.3531 82.0198 40.2501 82.3119 35.0298ZM88.2988 34.9933H90.8543V43.3166C90.8543 44.1563 90.9638 44.3023 91.7669 44.3023C92.0955 44.3023 93.7747 44.3023 94.2128 44.3023C95.016 44.3023 95.162 43.7912 95.235 39.9216C95.7461 40.3597 96.8047 40.7247 97.4984 40.9072C97.2793 45.4705 96.6222 46.6022 94.5049 46.6022C93.9938 46.6022 91.8764 46.6022 91.3654 46.6022C88.9194 46.6022 88.2988 45.8721 88.2988 43.3531V34.9933ZM63.6938 16.9593H74.6456V19.4782H63.6938V16.9593ZM64.1684 27.035H74.098V29.4809H64.1684V27.035ZM63.2192 39.3375C66.1032 38.6074 70.3379 37.4027 74.4996 36.198L74.8281 38.7169C70.9585 39.8486 66.9063 41.0898 63.8033 41.9659L63.2192 39.3375ZM67.819 17.945H70.3379V38.7534L67.819 39.4835V17.945ZM100.273 15.8276H111.663V18.4195H100.273V15.8276ZM100.674 26.3778H111.152V28.9698H100.674V26.3778ZM99.9078 40.3597C102.865 39.5565 107.245 38.1328 111.48 36.709L111.955 39.3375C107.976 40.6882 103.814 42.0754 100.565 43.1706L99.9078 40.3597ZM104.836 16.8498H107.465V39.4835L104.836 39.9946V16.8498ZM113.707 19.9163H131.924V46.6022H129.113V22.5447H116.445V46.8577H113.707V19.9163ZM115.35 30.9776H130.025V33.5695H115.35V30.9776ZM115.35 42.2215H130.025V44.8499H115.35V42.2215ZM121.154 13.4182L124.367 13.8198C123.564 16.4847 122.578 19.5147 121.738 21.486L119.219 20.975C119.986 18.9306 120.789 15.6816 121.154 13.4182ZM137.911 15.8276H161.822V46.3831H158.938V18.6021H140.721V46.5292H137.911V15.8276ZM139.772 28.4952H160.143V31.1966H139.772V28.4952ZM139.736 41.4183H160.216V44.1563H139.736V41.4183ZM185.368 27.327H197.963V29.9189H185.368V27.327ZM184.164 27.327H186.902V42.2215C186.902 43.6452 187.303 43.9372 189.311 43.9372C190.26 43.9372 195.006 43.9372 196.247 43.9372C198.218 43.9372 198.511 42.9881 198.73 37.9137C199.387 38.3883 200.555 38.8629 201.321 39.0454C200.92 44.9229 200.08 46.5657 196.43 46.5657C195.517 46.5657 189.932 46.5657 189.092 46.5657C185.295 46.5657 184.164 45.6895 184.164 42.185V27.327ZM183.762 15.426H199.387V31.9633H196.612V18.018H183.762V15.426ZM169.269 24.4065H180.659V26.5969H169.269V24.4065ZM169.488 14.6594H180.805V16.8498H169.488V14.6594ZM169.269 29.2983H180.659V31.4887H169.269V29.2983ZM167.553 19.4417H182.083V21.7051H167.553V19.4417ZM170.547 34.2266H180.55V44.8864H170.547V42.5865H178.104V36.49H170.547V34.2266ZM169.233 34.2266H171.679V46.5657H169.233V34.2266Z" fill="#E38805"/>
<defs>
<linearGradient id="paint0_linear_945_3845" x1="43.8167" y1="64.4394" x2="0.264882" y2="37.678" gradientUnits="userSpaceOnUse">
<stop stop-color="#BA5700"/>
<stop offset="0.49" stop-color="#EF9605"/>
<stop offset="1" stop-color="#F3C071"/>
</linearGradient>
<linearGradient id="paint1_linear_945_3845" x1="50.4954" y1="53.5842" x2="6.93412" y2="26.8229" gradientUnits="userSpaceOnUse">
<stop stop-color="#BA5700"/>
<stop offset="0.49" stop-color="#EF9605"/>
<stop offset="1" stop-color="#F3C071"/>
</linearGradient>
<linearGradient id="paint2_linear_945_3845" x1="46.2819" y1="60.4324" x2="2.7206" y2="33.671" gradientUnits="userSpaceOnUse">
<stop stop-color="#BA5700"/>
<stop offset="0.49" stop-color="#EF9605"/>
<stop offset="1" stop-color="#F3C071"/>
</linearGradient>
<clipPath id="clip0_945_3845">
<rect width="46.6466" height="56.4857" fill="white" transform="translate(0.875 0.757324)"/>
</clipPath>
</defs>
</svg>
